<svg id="b29088a6-6985-421f-8cbc-21208ae8a0c0" data-name="Layer 1" xmlns="http://www.w3.org/2000/svg" width="490" height="620" viewBox="0 0 490 620"><rect width="490" height="620" style="fill:none"/><path d="M218.485,583.886c-20.6-11.647-37.96-15.7-47.285-18.178-10.761-2.864-53.158-14.147-83.88-37.08-35.218-26.289-49.461-63.682-57.542-84.9a244.249,244.249,0,0,1-15.418-74.94V15.268l461.28.412V369.2a244.249,244.249,0,0,1-15.418,74.94c-8.081,21.218-22.324,58.611-57.542,84.9-30.722,22.933-73.119,34.216-83.88,37.08-9.325,2.482-26.683,6.531-47.285,18.178A170.083,170.083,0,0,0,245,602.84S230.3,590.566,218.485,583.886Z" style="fill:#fff000;stroke:#000;stroke-miterlimit:10;stroke-width:5px"/><path d="M98.75,491.815l8.511-19.646-7.017-3.039,1.733-4,18.791,8.14-1.732,4-7-3.033-8.51,19.647Z"/><path d="M114.949,498.543l8.19-24.433,18.116,6.073-1.385,4.133L126.687,479.9l-1.816,5.416,12.267,4.113-1.38,4.116-12.267-4.111-2.229,6.649,13.65,4.576-1.38,4.116Z"/><path d="M152.908,500.036l1.033-4.218,10.893,2.67-2.444,9.971a14.106,14.106,0,0,1-5.265,1.578,17.247,17.247,0,0,1-6.39-.326,14.114,14.114,0,0,1-6.442-3.325,10.784,10.784,0,0,1-3.232-5.788,15.675,15.675,0,0,1,.165-7.027,14.838,14.838,0,0,1,3.342-6.547,11.37,11.37,0,0,1,5.94-3.485,13.333,13.333,0,0,1,6.3.223q4.66,1.142,6.8,3.739a9.092,9.092,0,0,1,2.048,6.23l-5.25-.292a5.453,5.453,0,0,0-1.275-3.4,6.2,6.2,0,0,0-3.383-1.96,7.054,7.054,0,0,0-5.782.809q-2.471,1.622-3.483,5.753-1.092,4.455.343,7.169a6.809,6.809,0,0,0,4.644,3.5,8.962,8.962,0,0,0,3.337.157,11.246,11.246,0,0,0,3.11-.839l.778-3.176Z"/><path d="M190.372,516.827l-5.585-.923-1.266-6.141-10.163-1.678-3.052,5.429-5.446-.9,14.1-23.79,5.429.9Zm-7.791-11.62-1.946-10.014-4.991,8.869Z"/><path d="M194.213,517.233l2.461-25.652,10.9,1.046a18.768,18.768,0,0,1,5.909,1.265,5.925,5.925,0,0,1,2.748,2.745,7.432,7.432,0,0,1,.732,4.149,6.878,6.878,0,0,1-2.155,4.605,8.188,8.188,0,0,1-5.3,1.884,12.162,12.162,0,0,1,2.567,2.418,29.371,29.371,0,0,1,2.549,4.448l2.652,5.3-6.194-.593-3.209-5.942a36.471,36.471,0,0,0-2.368-4.032,3.991,3.991,0,0,0-1.455-1.217,8.577,8.577,0,0,0-2.579-.539l-1.05-.1-1.027,10.709Zm6.6-14.306,3.832.368a19.863,19.863,0,0,0,4.684.131,2.8,2.8,0,0,0,1.557-.946,3.354,3.354,0,0,0,.709-1.874,3.088,3.088,0,0,0-.491-2.157,3.185,3.185,0,0,0-1.854-1.193q-.623-.149-3.771-.45l-4.042-.388Z"/><path d="M231.674,494.27l10.3.089a30.129,30.129,0,0,1,4.559.3,6.722,6.722,0,0,1,2.68,1.087,6.636,6.636,0,0,1,1.959,2.171,5.845,5.845,0,0,1,.764,3.022,6.105,6.105,0,0,1-3.67,5.557,6.794,6.794,0,0,1,3.6,2.37,6.21,6.21,0,0,1,1.232,3.9,7.665,7.665,0,0,1-.847,3.412A6.9,6.9,0,0,1,250,518.8a7.37,7.37,0,0,1-3.5,1.191q-1.3.129-6.277.121l-8.771-.077Zm5.076,14.582-.061,6.89,4.816.042a23.329,23.329,0,0,0,3.57-.127,3.225,3.225,0,0,0,1.9-1.011,3.173,3.173,0,0,0,.749-2.182,3.369,3.369,0,0,0-.546-1.974,3.181,3.181,0,0,0-1.615-1.192,17.678,17.678,0,0,0-4.611-.409Zm.09-10.248-.052,5.959,3.409.03q3.042.026,3.781-.055a3.442,3.442,0,0,0,2.108-.9,2.718,2.718,0,0,0,.782-2.006,2.832,2.832,0,0,0-.641-1.948,2.987,2.987,0,0,0-1.953-.923q-.773-.094-4.446-.127Z"/><path d="M258.391,520.038l-1.367-25.733,19.081-1.014.231,4.354-13.885.737.3,5.7,12.92-.687.23,4.336-12.92.687.372,7,14.376-.764.231,4.336Z"/><path d="M283.385,518.55l-2.981-25.6,10.878-1.266a18.716,18.716,0,0,1,6.043,0,5.92,5.92,0,0,1,3.263,2.106,7.436,7.436,0,0,1,1.587,3.9,6.878,6.878,0,0,1-1.14,4.955,8.192,8.192,0,0,1-4.788,2.957,12.115,12.115,0,0,1,3.018,1.825,29.374,29.374,0,0,1,3.425,3.812l3.707,4.63-6.181.72-4.385-5.135a36.248,36.248,0,0,0-3.162-3.445,4,4,0,0,0-1.678-.885,8.571,8.571,0,0,0-2.635.016l-1.047.121,1.244,10.686Zm3.448-15.373,3.824-.446a19.932,19.932,0,0,0,4.608-.855,2.8,2.8,0,0,0,1.323-1.251,3.355,3.355,0,0,0,.3-1.981,3.087,3.087,0,0,0-.933-2.007,3.184,3.184,0,0,0-2.063-.777q-.639-.014-3.782.352l-4.033.47Z"/><path d="M309.723,515.16l-4.193-25.426,5.134-.846,4.192,25.425Z"/><path d="M320.562,513.493l-5.609-25.151,7.6-1.7,8.389,16.139.686-18.163,7.618-1.7,5.608,25.151-4.717,1.053-4.415-19.8-.577,20.912-4.89,1.09-9.392-18.688,4.416,19.8Z"/><path d="M373.306,499.314l-5.4,1.707-3.91-4.9-9.821,3.106-.264,6.221-5.263,1.664,1.8-27.6,5.246-1.658ZM361.1,492.48l-6.269-8.046L354.4,494.6Z"/><path d="M377.3,497.751l-10.042-23.732,4.662-1.973,16.419,11.738-6.706-15.848,4.452-1.884,10.042,23.732-4.809,2.034-16.115-11.427,6.548,15.476Z"/><polygon points="245 43.951 52.5 191.008 126.028 428.951 363.972 428.951 437.5 191.008 245 43.951" style="fill:none;stroke:#000;stroke-miterlimit:10;stroke-width:3px"/><polygon points="245 56.451 65 193.958 133.754 416.451 356.246 416.451 425 193.958 245 56.451" style="fill:#009a4b"/><circle cx="245" cy="256.795" r="135"/><path d="M334.7,357.38a134.12,134.12,0,0,1-179.4,0l13.41-14.84a114.144,114.144,0,0,0,152.58,0Z" style="fill:#fff000"/><path d="M161.474,356.52l7.046-9.03,1.823,1.423-3.129,4.01,6.812-1.135,2.451,1.913-6.144.863-.717,8.31-2.359-1.841.825-6.175-2.656.356-2.13,2.728Z"/><path d="M177.2,354.163l1.947,1.248-3.349,5.222a12.96,12.96,0,0,0-.961,1.657,1.849,1.849,0,0,0-.014,1.332,2.457,2.457,0,0,0,1.055,1.184,2.339,2.339,0,0,0,1.467.463,1.589,1.589,0,0,0,1.04-.508,12.974,12.974,0,0,0,1.136-1.582l3.42-5.334,1.947,1.249-3.248,5.063a15.424,15.424,0,0,1-1.731,2.352,3.241,3.241,0,0,1-1.358.837,3.493,3.493,0,0,1-1.638.058,5.877,5.877,0,0,1-2.043-.9,6.345,6.345,0,0,1-1.889-1.662,3.549,3.549,0,0,1-.6-1.552,3.166,3.166,0,0,1,.139-1.419,13.938,13.938,0,0,1,1.379-2.568Z"/><path d="M183.54,371.383l4.431-8.421-3.008-1.582.9-1.715,8.055,4.238-.9,1.715-3-1.579-4.431,8.421Z"/><path d="M198.712,378.448l-2.309-1,.114-2.785-4.2-1.816-1.9,2.013-2.252-.973,8.639-8.743,2.245.97ZM196.6,372.6l.237-4.528-3.106,3.287Z"/><path d="M207.371,369.346l2.221.645-1.733,5.956a12.873,12.873,0,0,0-.453,1.863,1.862,1.862,0,0,0,.364,1.281,2.465,2.465,0,0,0,1.348.836,2.339,2.339,0,0,0,1.537.028,1.593,1.593,0,0,0,.854-.781,13.07,13.07,0,0,0,.641-1.84l1.77-6.083,2.221.645-1.681,5.777a15.49,15.49,0,0,1-.994,2.745,3.219,3.219,0,0,1-1.066,1.187,3.468,3.468,0,0,1-1.555.52,5.871,5.871,0,0,1-2.212-.281,6.332,6.332,0,0,1-2.283-1.059,3.557,3.557,0,0,1-1.012-1.32,3.152,3.152,0,0,1-.268-1.4,13.9,13.9,0,0,1,.595-2.854Z"/><path d="M217.983,372.345l4.151.8a8.193,8.193,0,0,1,2.1.626,3.825,3.825,0,0,1,1.5,1.36,5.021,5.021,0,0,1,.725,2.028,8.452,8.452,0,0,1-.142,2.73,7.49,7.49,0,0,1-.8,2.327,5.051,5.051,0,0,1-1.586,1.757,4.087,4.087,0,0,1-1.768.592,7.016,7.016,0,0,1-2.056-.149l-4.273-.819Zm1.906,2.338-1.429,7.45,1.7.325a6.251,6.251,0,0,0,1.394.156,2.119,2.119,0,0,0,1.006-.292,2.423,2.423,0,0,0,.8-.971,7.462,7.462,0,0,0,.625-2.016,6.851,6.851,0,0,0,.155-2.047,2.632,2.632,0,0,0-.436-1.213,2.2,2.2,0,0,0-.95-.731,10.467,10.467,0,0,0-1.843-.465Z"/><path d="M237.984,386.733l-2.5-.243-.744-2.685-4.556-.443-1.192,2.5-2.442-.236,5.545-10.969,2.434.236Zm-3.8-4.92-1.161-4.383-1.95,4.081Z"/><path d="M241.186,386.745l.1-4.819-4.062-6.715,2.71.054,2.6,4.585,2.731-4.479,2.664.054-4.344,6.562-.1,4.8Z"/><path d="M258.122,386.266l-2.512.141-1.143-2.541-4.571.257-.8,2.65-2.45.138,3.811-11.685,2.441-.138Zm-4.505-4.286-1.814-4.154-1.306,4.33Z"/><path d="M265.536,385.271l-4.89-10.711,2.322-.456,3.211,7.386.538-8.123,2.7-.53,3.513,7.463.182-8.19,2.285-.448-.521,11.775-2.407.472-3.89-7.962-.58,8.84Z"/><path d="M288.29,379.547l-2.406.731-1.713-2.2-4.381,1.33-.148,2.764-2.348.713.941-12.255,2.34-.711Zm-5.39-3.1-2.745-3.608-.245,4.516Z"/><path d="M289.959,378.9l-4.338-10.6,2.083-.852,7.234,5.3-2.9-7.078,1.988-.815,4.338,10.6-2.147.879-7.1-5.163,2.828,6.912Z"/><path d="M303.853,368l-.9-1.707,4.409-2.325L309.489,368a6.26,6.26,0,0,1-1.284,2.077,7.65,7.65,0,0,1-2.221,1.777,6.266,6.266,0,0,1-3.123.8,4.792,4.792,0,0,1-2.781-.97,6.937,6.937,0,0,1-2.018-2.385,6.581,6.581,0,0,1-.821-3.162,5.045,5.045,0,0,1,.947-2.91,5.9,5.9,0,0,1,2.159-1.784,5.462,5.462,0,0,1,3.364-.764,4.034,4.034,0,0,1,2.518,1.467l-1.831,1.451a2.423,2.423,0,0,0-1.425-.753,2.744,2.744,0,0,0-1.7.347,3.127,3.127,0,0,0-1.684,1.974,4.044,4.044,0,0,0,.54,2.94,4.484,4.484,0,0,0,2.228,2.282,3.028,3.028,0,0,0,2.577-.207,3.974,3.974,0,0,0,1.155-.932,5,5,0,0,0,.787-1.2l-.679-1.285Z"/><path d="M309.95,365.211l1.764-1.413a2.736,2.736,0,0,0,1.6.942,2.5,2.5,0,0,0,1.694-.47,2.57,2.57,0,0,0,1.151-1.317,1.4,1.4,0,0,0-.13-1.235,1.041,1.041,0,0,0-.577-.448,1.9,1.9,0,0,0-.969.039q-.416.1-1.823.593a6.3,6.3,0,0,1-2.805.478,2.976,2.976,0,0,1-2.142-1.354,2.943,2.943,0,0,1-.48-1.641,3.1,3.1,0,0,1,.564-1.753,5.723,5.723,0,0,1,1.669-1.566,4.837,4.837,0,0,1,3.235-.983,3.344,3.344,0,0,1,2.338,1.487l-1.881,1.35a1.965,1.965,0,0,0-1.227-.715,2.333,2.333,0,0,0-1.439.477,2.643,2.643,0,0,0-1.1,1.21.833.833,0,0,0,.082.8.882.882,0,0,0,.667.394,6.107,6.107,0,0,0,2.2-.52,11.134,11.134,0,0,1,2.54-.675,3.21,3.21,0,0,1,1.7.283,3.607,3.607,0,0,1,1.931,3.12,3.275,3.275,0,0,1-.6,1.915,6.487,6.487,0,0,1-1.858,1.713,4.958,4.958,0,0,1-3.342.982A4.359,4.359,0,0,1,309.95,365.211Z"/><path d="M329.883,355.426l-1.976,1.556-2.395-1.424-3.6,2.834.867,2.628-1.927,1.518-3.585-11.757,1.921-1.513Zm-6.149-.924-3.87-2.362,1.415,4.3Z"/><path d="M161.474,356.52l7.046-9.03,1.823,1.423-3.129,4.01,6.812-1.135,2.451,1.913-6.144.863-.717,8.31-2.359-1.841.825-6.175-2.656.356-2.13,2.728Z" style="fill:#fff000"/><path d="M177.2,354.163l1.947,1.248-3.349,5.222a12.96,12.96,0,0,0-.961,1.657,1.849,1.849,0,0,0-.014,1.332,2.457,2.457,0,0,0,1.055,1.184,2.339,2.339,0,0,0,1.467.463,1.589,1.589,0,0,0,1.04-.508,12.974,12.974,0,0,0,1.136-1.582l3.42-5.334,1.947,1.249-3.248,5.063a15.424,15.424,0,0,1-1.731,2.352,3.241,3.241,0,0,1-1.358.837,3.493,3.493,0,0,1-1.638.058,5.877,5.877,0,0,1-2.043-.9,6.345,6.345,0,0,1-1.889-1.662,3.549,3.549,0,0,1-.6-1.552,3.166,3.166,0,0,1,.139-1.419,13.938,13.938,0,0,1,1.379-2.568Z" style="fill:#fff000"/><path d="M183.54,371.383l4.431-8.421-3.008-1.582.9-1.715,8.055,4.238-.9,1.715-3-1.579-4.431,8.421Z" style="fill:#fff000"/><path d="M198.712,378.448l-2.309-1,.114-2.785-4.2-1.816-1.9,2.013-2.252-.973,8.639-8.743,2.245.97ZM196.6,372.6l.237-4.528-3.106,3.287Z" style="fill:#fff000"/><path d="M207.371,369.346l2.221.645-1.733,5.956a12.873,12.873,0,0,0-.453,1.863,1.862,1.862,0,0,0,.364,1.281,2.465,2.465,0,0,0,1.348.836,2.339,2.339,0,0,0,1.537.028,1.593,1.593,0,0,0,.854-.781,13.07,13.07,0,0,0,.641-1.84l1.77-6.083,2.221.645-1.681,5.777a15.49,15.49,0,0,1-.994,2.745,3.219,3.219,0,0,1-1.066,1.187,3.468,3.468,0,0,1-1.555.52,5.871,5.871,0,0,1-2.212-.281,6.332,6.332,0,0,1-2.283-1.059,3.557,3.557,0,0,1-1.012-1.32,3.152,3.152,0,0,1-.268-1.4,13.9,13.9,0,0,1,.595-2.854Z" style="fill:#fff000"/><path d="M217.983,372.345l4.151.8a8.193,8.193,0,0,1,2.1.626,3.825,3.825,0,0,1,1.5,1.36,5.021,5.021,0,0,1,.725,2.028,8.452,8.452,0,0,1-.142,2.73,7.49,7.49,0,0,1-.8,2.327,5.051,5.051,0,0,1-1.586,1.757,4.087,4.087,0,0,1-1.768.592,7.016,7.016,0,0,1-2.056-.149l-4.273-.819Zm1.906,2.338-1.429,7.45,1.7.325a6.251,6.251,0,0,0,1.394.156,2.119,2.119,0,0,0,1.006-.292,2.423,2.423,0,0,0,.8-.971,7.462,7.462,0,0,0,.625-2.016,6.851,6.851,0,0,0,.155-2.047,2.632,2.632,0,0,0-.436-1.213,2.2,2.2,0,0,0-.95-.731,10.467,10.467,0,0,0-1.843-.465Z" style="fill:#fff000"/><path d="M237.984,386.733l-2.5-.243-.744-2.685-4.556-.443-1.192,2.5-2.442-.236,5.545-10.969,2.434.236Zm-3.8-4.92-1.161-4.383-1.95,4.081Z" style="fill:#fff000"/><path d="M241.186,386.745l.1-4.819-4.062-6.715,2.71.054,2.6,4.585,2.731-4.479,2.664.054-4.344,6.562-.1,4.8Z" style="fill:#fff000"/><path d="M258.122,386.266l-2.512.141-1.143-2.541-4.571.257-.8,2.65-2.45.138,3.811-11.685,2.441-.138Zm-4.505-4.286-1.814-4.154-1.306,4.33Z" style="fill:#fff000"/><path d="M265.536,385.271l-4.89-10.711,2.322-.456,3.211,7.386.538-8.123,2.7-.53,3.513,7.463.182-8.19,2.285-.448-.521,11.775-2.407.472-3.89-7.962-.58,8.84Z" style="fill:#fff000"/><path d="M288.29,379.547l-2.406.731-1.713-2.2-4.381,1.33-.148,2.764-2.348.713.941-12.255,2.34-.711Zm-5.39-3.1-2.745-3.608-.245,4.516Z" style="fill:#fff000"/><path d="M289.959,378.9l-4.338-10.6,2.083-.852,7.234,5.3-2.9-7.078,1.988-.815,4.338,10.6-2.147.879-7.1-5.163,2.828,6.912Z" style="fill:#fff000"/><path d="M303.853,368l-.9-1.707,4.409-2.325L309.489,368a6.26,6.26,0,0,1-1.284,2.077,7.65,7.65,0,0,1-2.221,1.777,6.266,6.266,0,0,1-3.123.8,4.792,4.792,0,0,1-2.781-.97,6.937,6.937,0,0,1-2.018-2.385,6.581,6.581,0,0,1-.821-3.162,5.045,5.045,0,0,1,.947-2.91,5.9,5.9,0,0,1,2.159-1.784,5.462,5.462,0,0,1,3.364-.764,4.034,4.034,0,0,1,2.518,1.467l-1.831,1.451a2.423,2.423,0,0,0-1.425-.753,2.744,2.744,0,0,0-1.7.347,3.127,3.127,0,0,0-1.684,1.974,4.044,4.044,0,0,0,.54,2.94,4.484,4.484,0,0,0,2.228,2.282,3.028,3.028,0,0,0,2.577-.207,3.974,3.974,0,0,0,1.155-.932,5,5,0,0,0,.787-1.2l-.679-1.285Z" style="fill:#fff000"/><path d="M309.95,365.211l1.764-1.413a2.736,2.736,0,0,0,1.6.942,2.5,2.5,0,0,0,1.694-.47,2.57,2.57,0,0,0,1.151-1.317,1.4,1.4,0,0,0-.13-1.235,1.041,1.041,0,0,0-.577-.448,1.9,1.9,0,0,0-.969.039q-.416.1-1.823.593a6.3,6.3,0,0,1-2.805.478,2.976,2.976,0,0,1-2.142-1.354,2.943,2.943,0,0,1-.48-1.641,3.1,3.1,0,0,1,.564-1.753,5.723,5.723,0,0,1,1.669-1.566,4.837,4.837,0,0,1,3.235-.983,3.344,3.344,0,0,1,2.338,1.487l-1.881,1.35a1.965,1.965,0,0,0-1.227-.715,2.333,2.333,0,0,0-1.439.477,2.643,2.643,0,0,0-1.1,1.21.833.833,0,0,0,.082.8.882.882,0,0,0,.667.394,6.107,6.107,0,0,0,2.2-.52,11.134,11.134,0,0,1,2.54-.675,3.21,3.21,0,0,1,1.7.283,3.607,3.607,0,0,1,1.931,3.12,3.275,3.275,0,0,1-.6,1.915,6.487,6.487,0,0,1-1.858,1.713,4.958,4.958,0,0,1-3.342.982A4.359,4.359,0,0,1,309.95,365.211Z" style="fill:#fff000"/><path d="M329.883,355.426l-1.976,1.556-2.395-1.424-3.6,2.834.867,2.628-1.927,1.518-3.585-11.757,1.921-1.513Zm-6.149-.924-3.87-2.362,1.415,4.3Z" style="fill:#fff000"/><path d="M161.474,356.52l7.046-9.03,1.823,1.423-3.129,4.01,6.812-1.135,2.451,1.913-6.144.863-.717,8.31-2.359-1.841.825-6.175-2.656.356-2.13,2.728Z" style="fill:#231f20"/><path d="M177.2,354.163l1.947,1.248-3.349,5.222a12.96,12.96,0,0,0-.961,1.657,1.849,1.849,0,0,0-.014,1.332,2.457,2.457,0,0,0,1.055,1.184,2.339,2.339,0,0,0,1.467.463,1.589,1.589,0,0,0,1.04-.508,12.974,12.974,0,0,0,1.136-1.582l3.42-5.334,1.947,1.249-3.248,5.063a15.424,15.424,0,0,1-1.731,2.352,3.241,3.241,0,0,1-1.358.837,3.493,3.493,0,0,1-1.638.058,5.877,5.877,0,0,1-2.043-.9,6.345,6.345,0,0,1-1.889-1.662,3.549,3.549,0,0,1-.6-1.552,3.166,3.166,0,0,1,.139-1.419,13.938,13.938,0,0,1,1.379-2.568Z" style="fill:#231f20"/><path d="M183.54,371.383l4.431-8.421-3.008-1.582.9-1.715,8.055,4.238-.9,1.715-3-1.579-4.431,8.421Z" style="fill:#231f20"/><path d="M198.712,378.448l-2.309-1,.114-2.785-4.2-1.816-1.9,2.013-2.252-.973,8.639-8.743,2.245.97ZM196.6,372.6l.237-4.528-3.106,3.287Z" style="fill:#231f20"/><path d="M207.371,369.346l2.221.645-1.733,5.956a12.873,12.873,0,0,0-.453,1.863,1.862,1.862,0,0,0,.364,1.281,2.465,2.465,0,0,0,1.348.836,2.339,2.339,0,0,0,1.537.028,1.593,1.593,0,0,0,.854-.781,13.07,13.07,0,0,0,.641-1.84l1.77-6.083,2.221.645-1.681,5.777a15.49,15.49,0,0,1-.994,2.745,3.219,3.219,0,0,1-1.066,1.187,3.468,3.468,0,0,1-1.555.52,5.871,5.871,0,0,1-2.212-.281,6.332,6.332,0,0,1-2.283-1.059,3.557,3.557,0,0,1-1.012-1.32,3.152,3.152,0,0,1-.268-1.4,13.9,13.9,0,0,1,.595-2.854Z" style="fill:#231f20"/><path d="M217.983,372.345l4.151.8a8.193,8.193,0,0,1,2.1.626,3.825,3.825,0,0,1,1.5,1.36,5.021,5.021,0,0,1,.725,2.028,8.452,8.452,0,0,1-.142,2.73,7.49,7.49,0,0,1-.8,2.327,5.051,5.051,0,0,1-1.586,1.757,4.087,4.087,0,0,1-1.768.592,7.016,7.016,0,0,1-2.056-.149l-4.273-.819Zm1.906,2.338-1.429,7.45,1.7.325a6.251,6.251,0,0,0,1.394.156,2.119,2.119,0,0,0,1.006-.292,2.423,2.423,0,0,0,.8-.971,7.462,7.462,0,0,0,.625-2.016,6.851,6.851,0,0,0,.155-2.047,2.632,2.632,0,0,0-.436-1.213,2.2,2.2,0,0,0-.95-.731,10.467,10.467,0,0,0-1.843-.465Z" style="fill:#231f20"/><path d="M237.984,386.733l-2.5-.243-.744-2.685-4.556-.443-1.192,2.5-2.442-.236,5.545-10.969,2.434.236Zm-3.8-4.92-1.161-4.383-1.95,4.081Z" style="fill:#231f20"/><path d="M241.186,386.745l.1-4.819-4.062-6.715,2.71.054,2.6,4.585,2.731-4.479,2.664.054-4.344,6.562-.1,4.8Z" style="fill:#231f20"/><path d="M258.122,386.266l-2.512.141-1.143-2.541-4.571.257-.8,2.65-2.45.138,3.811-11.685,2.441-.138Zm-4.505-4.286-1.814-4.154-1.306,4.33Z" style="fill:#231f20"/><path d="M265.536,385.271l-4.89-10.711,2.322-.456,3.211,7.386.538-8.123,2.7-.53,3.513,7.463.182-8.19,2.285-.448-.521,11.775-2.407.472-3.89-7.962-.58,8.84Z" style="fill:#231f20"/><path d="M288.29,379.547l-2.406.731-1.713-2.2-4.381,1.33-.148,2.764-2.348.713.941-12.255,2.34-.711Zm-5.39-3.1-2.745-3.608-.245,4.516Z" style="fill:#231f20"/><path d="M289.959,378.9l-4.338-10.6,2.083-.852,7.234,5.3-2.9-7.078,1.988-.815,4.338,10.6-2.147.879-7.1-5.163,2.828,6.912Z" style="fill:#231f20"/><path d="M303.853,368l-.9-1.707,4.409-2.325L309.489,368a6.26,6.26,0,0,1-1.284,2.077,7.65,7.65,0,0,1-2.221,1.777,6.266,6.266,0,0,1-3.123.8,4.792,4.792,0,0,1-2.781-.97,6.937,6.937,0,0,1-2.018-2.385,6.581,6.581,0,0,1-.821-3.162,5.045,5.045,0,0,1,.947-2.91,5.9,5.9,0,0,1,2.159-1.784,5.462,5.462,0,0,1,3.364-.764,4.034,4.034,0,0,1,2.518,1.467l-1.831,1.451a2.423,2.423,0,0,0-1.425-.753,2.744,2.744,0,0,0-1.7.347,3.127,3.127,0,0,0-1.684,1.974,4.044,4.044,0,0,0,.54,2.94,4.484,4.484,0,0,0,2.228,2.282,3.028,3.028,0,0,0,2.577-.207,3.974,3.974,0,0,0,1.155-.932,5,5,0,0,0,.787-1.2l-.679-1.285Z" style="fill:#231f20"/><path d="M309.95,365.211l1.764-1.413a2.736,2.736,0,0,0,1.6.942,2.5,2.5,0,0,0,1.694-.47,2.57,2.57,0,0,0,1.151-1.317,1.4,1.4,0,0,0-.13-1.235,1.041,1.041,0,0,0-.577-.448,1.9,1.9,0,0,0-.969.039q-.416.1-1.823.593a6.3,6.3,0,0,1-2.805.478,2.976,2.976,0,0,1-2.142-1.354,2.943,2.943,0,0,1-.48-1.641,3.1,3.1,0,0,1,.564-1.753,5.723,5.723,0,0,1,1.669-1.566,4.837,4.837,0,0,1,3.235-.983,3.344,3.344,0,0,1,2.338,1.487l-1.881,1.35a1.965,1.965,0,0,0-1.227-.715,2.333,2.333,0,0,0-1.439.477,2.643,2.643,0,0,0-1.1,1.21.833.833,0,0,0,.082.8.882.882,0,0,0,.667.394,6.107,6.107,0,0,0,2.2-.52,11.134,11.134,0,0,1,2.54-.675,3.21,3.21,0,0,1,1.7.283,3.607,3.607,0,0,1,1.931,3.12,3.275,3.275,0,0,1-.6,1.915,6.487,6.487,0,0,1-1.858,1.713,4.958,4.958,0,0,1-3.342.982A4.359,4.359,0,0,1,309.95,365.211Z" style="fill:#231f20"/><path d="M329.883,355.426l-1.976,1.556-2.395-1.424-3.6,2.834.867,2.628-1.927,1.518-3.585-11.757,1.921-1.513Zm-6.149-.924-3.87-2.362,1.415,4.3Z" style="fill:#231f20"/><circle cx="245" cy="256.795" r="135" style="fill:none;stroke:#fff;stroke-miterlimit:10;stroke-width:3px"/><path d="M139.155,274.214,119.2,276.086l-.606-6.466a23.52,23.52,0,0,1-.15-4.819,5.253,5.253,0,0,1,1.684-3.056,6.221,6.221,0,0,1,3.777-1.521,6.544,6.544,0,0,1,3.153.377,5.5,5.5,0,0,1,2.126,1.51,5.866,5.866,0,0,1,1.142,2,23.069,23.069,0,0,1,.678,4.152l.246,2.627,7.528-.706ZM122.2,271.74l5.663-.531-.207-2.2a10.466,10.466,0,0,0-.612-3.156,2.629,2.629,0,0,0-2.693-1.477,2.586,2.586,0,0,0-1.737.808,2.8,2.8,0,0,0-.732,1.7,19.287,19.287,0,0,0,.136,2.912Z" style="fill:#fff"/><path d="M137.72,254.69l-19.955-1.868.793-8.48a14.582,14.582,0,0,1,.973-4.6,4.606,4.606,0,0,1,2.13-2.142,5.777,5.777,0,0,1,3.226-.577,5.353,5.353,0,0,1,3.586,1.667,6.378,6.378,0,0,1,1.475,4.121,9.435,9.435,0,0,1,1.876-2,22.861,22.861,0,0,1,3.454-1.991l4.121-2.072-.451,4.819-4.615,2.506a28.571,28.571,0,0,0-3.132,1.849,3.125,3.125,0,0,0-.944,1.134,6.712,6.712,0,0,0-.414,2.007l-.076.817,8.331.78Zm-11.138-5.107.278-2.981a15.364,15.364,0,0,0,.094-3.644,2.173,2.173,0,0,0-.738-1.208,2.6,2.6,0,0,0-1.459-.549,2.4,2.4,0,0,0-1.677.385,2.478,2.478,0,0,0-.925,1.445q-.114.483-.343,2.934l-.294,3.144Z" style="fill:#fff"/><path d="M145.259,216.676l-1.253,4.22-4.862.381-2.282,7.68,3.893,2.882-1.222,4.116-16.991-13.191,1.219-4.1Zm-9.723,4.885-7.916.529,6.359,4.713Z" style="fill:#fff"/><path d="M148.183,211.118l-7.556-3.751-13.662,1.414,2.11-4.249,9.2-.7-5.047-7.665,2.073-4.176,7.144,11.775,7.531,3.738Z" style="fill:#fff"/><path d="M146.362,193.29a12.743,12.743,0,0,1-3.517-3.86,9.424,9.424,0,0,1-1.042-3.154,7.8,7.8,0,0,1,.149-3.154,11.017,11.017,0,0,1,2-3.909,9.411,9.411,0,0,1,6.5-3.945q3.8-.433,7.679,2.55a10.5,10.5,0,0,1,4.413,6.721,10.539,10.539,0,0,1-8.622,11.237A10.349,10.349,0,0,1,146.362,193.29Zm2.433-3.39a7.5,7.5,0,0,0,5.05,1.9,5.4,5.4,0,0,0,4.864-6.305,7.653,7.653,0,0,0-3.2-4.417,7.54,7.54,0,0,0-5-1.936,5.6,5.6,0,0,0-4.888,6.391A7.574,7.574,0,0,0,148.795,189.9Z" style="fill:#fff"/><path d="M170.794,169.763l-2.2-2.56,6.611-5.69,5.209,6.051a10.987,10.987,0,0,1-1.379,4.046,13.414,13.414,0,0,1-3.094,3.9,10.975,10.975,0,0,1-5.016,2.576,8.388,8.388,0,0,1-5.125-.567,12.191,12.191,0,0,1-4.373-3.28,11.531,11.531,0,0,1-2.635-5.073,8.838,8.838,0,0,1,.477-5.336,10.378,10.378,0,0,1,2.985-3.887,9.578,9.578,0,0,1,5.441-2.617,7.067,7.067,0,0,1,4.87,1.518l-2.557,3.192a4.244,4.244,0,0,0-2.727-.727,4.808,4.808,0,0,0-2.77,1.256,5.485,5.485,0,0,0-2.1,4.026,7.087,7.087,0,0,0,2.069,4.8,7.852,7.852,0,0,0,4.694,3.022,5.3,5.3,0,0,0,4.314-1.359,7,7,0,0,0,1.607-2.042,8.749,8.749,0,0,0,.874-2.348l-1.659-1.928Z" style="fill:#fff"/><path d="M201.5,158.485l-3.84,2.153-3.753-3.116-6.989,3.917.783,4.781-3.745,2.1-2.99-21.3,3.733-2.092Zm-10.377-3.274-6.045-5.137,1.274,7.811Z" style="fill:#fff"/><path d="M295.635,162.483l8.167-14.512-5.183-2.917,1.662-2.955,13.881,7.812-1.662,2.954-5.172-2.91-8.166,14.512Z" style="fill:#fff"/><path d="M312.646,160.958a12.774,12.774,0,0,1,4-3.35,9.451,9.451,0,0,1,3.2-.907,7.8,7.8,0,0,1,3.144.282,11,11,0,0,1,3.821,2.168,9.418,9.418,0,0,1,3.666,6.661q.272,3.813-2.874,7.564a10.5,10.5,0,0,1-6.9,4.125,10.539,10.539,0,0,1-10.862-9.091A10.352,10.352,0,0,1,312.646,160.958Zm3.284,2.575a7.515,7.515,0,0,0-2.112,4.965,5.406,5.406,0,0,0,6.094,5.127,7.66,7.66,0,0,0,4.549-3.01,7.526,7.526,0,0,0,2.145-4.909,5.6,5.6,0,0,0-6.177-5.155A7.573,7.573,0,0,0,315.93,163.533Z" style="fill:#fff"/><path d="M323.637,183.79,339.3,171.282l2.525,3.162-6.164,4.923,4.948,6.2,6.164-4.923L349.3,183.8,333.637,196.31l-2.526-3.162,6.848-5.469-4.948-6.2-6.848,5.469Z" style="fill:#fff"/><path d="M344.627,216.4l-2.031-3.905,3.232-3.653-3.695-7.109-4.8.633-1.98-3.809,21.383-2.319,1.975,3.8Zm3.6-10.268,5.324-5.881-7.848,1.028Z" style="fill:#fff"/><path d="M355.126,225.8l3.247-.926,2.394,8.388-7.679,2.19a10.973,10.973,0,0,1-3.1-2.949,13.432,13.432,0,0,1-2.241-4.442,10.977,10.977,0,0,1-.235-5.635,8.391,8.391,0,0,1,2.665-4.414,12.206,12.206,0,0,1,4.811-2.595,11.536,11.536,0,0,1,5.711-.264,8.842,8.842,0,0,1,4.644,2.67,10.372,10.372,0,0,1,2.276,4.341,9.577,9.577,0,0,1,.094,6.037,7.064,7.064,0,0,1-3.421,3.783l-1.825-3.658a4.245,4.245,0,0,0,1.8-2.172,4.814,4.814,0,0,0,.021-3.041,5.476,5.476,0,0,0-2.774-3.594,7.079,7.079,0,0,0-5.228-.137,7.848,7.848,0,0,0-4.712,2.993,5.3,5.3,0,0,0-.576,4.487,6.963,6.963,0,0,0,1.18,2.315,8.725,8.725,0,0,0,1.765,1.778l2.445-.7Z" style="fill:#fff"/><path d="M352.449,258.376l-.339-4.389,4.4-2.095L355.9,243.9l-4.666-1.3-.331-4.28,20.585,6.238.33,4.267Zm7.332-8.04,7.2-3.326-7.624-2.126Z" style="fill:#fff"/><path d="M188.761,341l3.938-.383a4.809,4.809,0,0,0,1.442,2.912,4.361,4.361,0,0,0,2.933.93,4.5,4.5,0,0,0,2.946-.827,2.462,2.462,0,0,0,.991-1.935,1.827,1.827,0,0,0-.417-1.21,3.327,3.327,0,0,0-1.456-.868q-.711-.246-3.24-.875a10.993,10.993,0,0,1-4.566-1.982,5.215,5.215,0,0,1-1.846-4.034,5.152,5.152,0,0,1,.868-2.864,5.436,5.436,0,0,1,2.5-2.03,10.024,10.024,0,0,1,3.944-.7q3.774,0,5.681,1.654a5.84,5.84,0,0,1,2,4.416l-4.047.178a3.436,3.436,0,0,0-1.114-2.222,4.084,4.084,0,0,0-2.564-.677,4.614,4.614,0,0,0-2.761.725,1.457,1.457,0,0,0-.643,1.244,1.537,1.537,0,0,0,.6,1.217,10.647,10.647,0,0,0,3.718,1.34,19.557,19.557,0,0,1,4.368,1.442,5.628,5.628,0,0,1,2.215,2.037,6.309,6.309,0,0,1-.157,6.419,5.727,5.727,0,0,1-2.707,2.235,11.347,11.347,0,0,1-4.361.732,8.684,8.684,0,0,1-5.838-1.757A7.636,7.636,0,0,1,188.761,341Z" style="fill:#fff"/><path d="M226.518,347.525h-4.4l-1.75-4.552h-8.012l-1.654,4.552h-4.293l7.806-20.043h4.28Zm-7.451-7.929-2.762-7.438L213.6,339.6Z" style="fill:#fff"/><path d="M231.366,347.525V339.09l-7.342-11.608h4.745l4.716,7.93,4.621-7.93h4.663l-7.37,11.635v8.408Z" style="fill:#fff"/><path d="M260.288,347.525h-4.4l-1.75-4.552h-8.012l-1.654,4.552h-4.293l7.806-20.043h4.28Zm-7.451-7.929-2.762-7.438-2.707,7.438Z" style="fill:#fff"/><path d="M271.744,340.156v-3.377h8.723v7.985a10.983,10.983,0,0,1-3.685,2.167,13.414,13.414,0,0,1-4.887.936,10.967,10.967,0,0,1-5.483-1.319,8.4,8.4,0,0,1-3.514-3.774,12.188,12.188,0,0,1-1.175-5.338,11.538,11.538,0,0,1,1.312-5.565,8.838,8.838,0,0,1,3.842-3.732,10.371,10.371,0,0,1,4.8-1,9.574,9.574,0,0,1,5.831,1.565,7.07,7.07,0,0,1,2.7,4.327l-4.019.752a4.248,4.248,0,0,0-1.593-2.331,4.82,4.82,0,0,0-2.919-.854,5.484,5.484,0,0,0-4.218,1.681,7.081,7.081,0,0,0-1.565,4.99,7.844,7.844,0,0,0,1.586,5.353,5.3,5.3,0,0,0,4.156,1.784,6.969,6.969,0,0,0,2.55-.5,8.736,8.736,0,0,0,2.194-1.21v-2.543Z" style="fill:#fff"/><path d="M302.3,347.525h-4.4l-1.75-4.552h-8.012l-1.654,4.552h-4.293l7.806-20.043h4.28Zm-7.451-7.929-2.762-7.438-2.707,7.438Z" style="fill:#fff"/><polygon points="245 145.557 148.5 312.7 341.5 312.7 245 145.557" style="fill:#fff000"/><polygon points="259.72 176.24 230.28 176.24 241.5 156.81 247.86 167.82 251.36 161.76 259.72 176.24" style="fill:#00a2e9"/><path d="M336.32,298.64c-2.775-3.885-7.043-8.484-12.42-8.64-8.23-.238-11.02,10.164-19.62,10.44-9.1.292-11.362-11.171-20.172-10.659-8.494.493-11.712,11.459-20.3,10.772a12.9,12.9,0,0,1-7.592-3.713" style="fill:none;stroke:#c3635a;stroke-miterlimit:10;stroke-width:2px"/><path d="M336.32,291.64c-2.775-3.885-7.043-8.484-12.42-8.64-8.23-.238-11.02,10.164-19.62,10.44-9.1.292-11.362-11.171-20.172-10.659-8.494.493-11.712,11.459-20.3,10.772a12.9,12.9,0,0,1-7.592-3.713" style="fill:none;stroke:#c3635a;stroke-miterlimit:10;stroke-width:2px"/><path d="M323.9,275c-8.23-.238-11.02,10.164-19.62,10.44-9.1.292-11.362-11.171-20.172-10.659-8.494.493-11.712,11.459-20.3,10.772a12.9,12.9,0,0,1-7.592-3.713" style="fill:none;stroke:#c3635a;stroke-miterlimit:10;stroke-width:2px"/><path d="M323.9,268c-8.23-.238-11.02,10.164-19.62,10.44-9.1.292-11.362-11.171-20.172-10.659-8.494.493-11.712,11.459-20.3,10.772a12.9,12.9,0,0,1-7.592-3.713" style="fill:none;stroke:#c3635a;stroke-miterlimit:10;stroke-width:2px"/><path d="M317.009,263.584c-3.875,3.033-7.024,7.673-12.729,7.856-9.1.292-11.362-11.171-20.172-10.659-8.494.493-11.712,11.459-20.3,10.772a12.9,12.9,0,0,1-7.592-3.713" style="fill:none;stroke:#c3635a;stroke-miterlimit:10;stroke-width:2px"/><path d="M314.071,258.174c-2.751,2.558-5.572,5.131-9.791,5.266-9.1.292-11.362-11.171-20.172-10.659-8.494.493-11.712,11.459-20.3,10.772a12.9,12.9,0,0,1-7.592-3.713" style="fill:none;stroke:#c3635a;stroke-miterlimit:10;stroke-width:2px"/><path d="M153.68,298.64c2.775-3.885,7.043-8.484,12.42-8.64,8.23-.238,11.02,10.164,19.62,10.44,9.1.292,11.362-11.171,20.172-10.659,8.494.493,11.712,11.459,20.3,10.772a12.9,12.9,0,0,0,7.592-3.713" style="fill:none;stroke:#00a2e9;stroke-miterlimit:10;stroke-width:2px"/><path d="M153.68,291.64c2.775-3.885,7.043-8.484,12.42-8.64,8.23-.238,11.02,10.164,19.62,10.44,9.1.292,11.362-11.171,20.172-10.659,8.494.493,11.712,11.459,20.3,10.772a12.9,12.9,0,0,0,7.592-3.713" style="fill:none;stroke:#00a2e9;stroke-miterlimit:10;stroke-width:2px"/><path d="M166.1,275c8.23-.238,11.02,10.164,19.62,10.44,9.1.292,11.362-11.171,20.172-10.659,8.494.493,11.712,11.459,20.3,10.772a12.9,12.9,0,0,0,7.592-3.713" style="fill:none;stroke:#00a2e9;stroke-miterlimit:10;stroke-width:2px"/><path d="M166.1,268c8.23-.238,11.02,10.164,19.62,10.44,9.1.292,11.362-11.171,20.172-10.659,8.494.493,11.712,11.459,20.3,10.772a12.9,12.9,0,0,0,7.592-3.713" style="fill:none;stroke:#00a2e9;stroke-miterlimit:10;stroke-width:2px"/><path d="M172.991,263.584c3.875,3.033,7.024,7.673,12.729,7.856,9.1.292,11.362-11.171,20.172-10.659,8.494.493,11.712,11.459,20.3,10.772a12.9,12.9,0,0,0,7.592-3.713" style="fill:none;stroke:#00a2e9;stroke-miterlimit:10;stroke-width:2px"/><path d="M175.929,258.174c2.751,2.558,5.572,5.131,9.791,5.266,9.1.292,11.362-11.171,20.172-10.659,8.494.493,11.712,11.459,20.3,10.772a12.9,12.9,0,0,0,7.592-3.713" style="fill:none;stroke:#00a2e9;stroke-miterlimit:10;stroke-width:2px"/><path d="M245,130.73,136,319.53H354Zm0,14.83L341.5,312.7h-193Z"/><polygon points="245 130.731 136 319.525 354 319.525 245 130.731" style="fill:none;stroke:#fff;stroke-miterlimit:10;stroke-width:3px"/><ellipse cx="245" cy="249.163" rx="37.064" ry="54.157" style="fill:#fff"/><path d="M244.664,233.17a25.982,25.982,0,0,1-1.424-12.356c.777-4.238,1.2-6.114,3.426-9.151,2.829,10.279,3.84,11.574,7.066,18.944,3.553.227,3.441,2.436,3.427,4.512,1.52.193,1.927,1.141,1.6,2.59a2.5,2.5,0,0,1,1.211,3.037c1.693,1.475.895,2.45.44,3.424,1.487,2.577.3,3.691-.963,4.853-2.429,5.494.083,5.554-3.819,12.209-2.876,4.365-5.587,4.432-8.773,6.214,1.39,1.408.266,3.3.378,5.761.262,5.713.262,5.713-.323,7.943-.248,1.749-.619,2.25-2.415,3.371-1.837,1.962-2.381,2.21-4.734,2.129-1.473-.981-2.732-.914-2.87-4.1a3.682,3.682,0,0,1,3.579-3c.88-.547,1.2-1.007.577-2.262a2.231,2.231,0,0,1,.647-2.537,9.546,9.546,0,0,0-.516-1.595c-.949-1.556-1.335-2.57.048-5.681-.956-.38-1.651-.394-1.961-2.4a3.541,3.541,0,0,1,2.113-3.552c2.229-.421,2.96.167,4.417,1.081,5.257-.987,4.748-4.853,4.666-7.556-1.28-5.767-5.753-9.832-7.377-13.931-1.231-2.91-2.676-6.281-2.532-10.606,1.294,1.108,2.58,2.476,4.108,2.656Zm14.12,12.035a.815.815,0,1,1-.777.852v-.038a.794.794,0,0,1,.774-.814Zm-.214-3.464a.815.815,0,1,1-.776.852v-.038a.794.794,0,0,1,.775-.814Zm-.949-2.584a.816.816,0,1,1-.769.86v-.045A.8.8,0,0,1,257.621,239.157Zm-1.61-2.256a.982.982,0,1,1-.927,1.035c0-.018,0-.036,0-.054a.954.954,0,0,1,.925-.981Zm-2.436-4.252a1.234,1.234,0,1,1-1.154,1.309c0-.027,0-.054,0-.081a1.192,1.192,0,0,1,1.155-1.228Z" style="fill-rule:evenodd"/><path d="M240.535,204.64a26.52,26.52,0,0,0-11.873,6.751,39.31,39.31,0,0,0-8.027,11.107,62.876,62.876,0,0,0,0,53.329,39.292,39.292,0,0,0,8.026,11.107,26.528,26.528,0,0,0,11.872,6.752,26.136,26.136,0,0,1-12.206-6.393,39.779,39.779,0,0,1-8.378-11.117,61.51,61.51,0,0,1,0-54.026,39.771,39.771,0,0,1,8.377-11.117A26.141,26.141,0,0,1,240.535,204.64Z" style="fill:#63c292"/><path d="M216.512,230.9c.023-.012-.7-2.153-1.231-4.927a28.11,28.11,0,0,1-.27-5.073c.026,0,.114,2.276.536,5.03C216.064,228.658,216.54,230.908,216.512,230.9Z" style="fill:#63c292"/><path d="M217.35,229.006a19.822,19.822,0,0,1-1.01-4.985c-.1-2.774-.121-5.019.059-5.015-.18-.006.262,2.242.363,5C217.054,226.765,217.248,229.017,217.35,229.006Z" style="fill:#63c292"/><path d="M217.548,228.727a22.493,22.493,0,0,1-.562-6c-.08-3.337.418-6.01.593-6-.179-.009-.18,2.688-.1,6A54.825,54.825,0,0,0,217.548,228.727Z" style="fill:#63c292"/><path d="M218.019,227.425a31.505,31.505,0,0,1,0-7.515,55.757,55.757,0,0,1,.733-7.485c-.177,3.351-.177,3.351-.328,7.51A56.517,56.517,0,0,0,218.019,227.425Z" style="fill:#63c292"/><path d="M218.984,225.683a76.349,76.349,0,0,1,.4-9.861c1.113-5.353,1.488-6.089,1.588-6.083-.1-.035.021.87-1.084,6.167C219.233,221.244,219.075,225.7,218.984,225.683Z" style="fill:#63c292"/><path d="M223.114,206.924c-.356,1.734-.679,4.24-1.334,6.918-1.34,5.354-2.616,9.611-2.471,9.648a68.432,68.432,0,0,1,1.973-9.768" style="fill:#63c292"/><path d="M220.194,222.515c.114.012,1.027-4.187,2.2-9.438a23.235,23.235,0,0,1,2.129-6.544c.092.039-.506,1.437-1.635,6.675A58.2,58.2,0,0,1,220.194,222.515Z" style="fill:#63c292"/><path d="M221.761,219.826c.024.006.828-3.613,2.309-7.937,1.652-4.226,2.745-7.781,2.864-7.734a81.983,81.983,0,0,1-2.381,7.91C223.079,216.364,221.782,219.836,221.761,219.826Z" style="fill:#63c292"/><path d="M220.918,220.426c-.1-.039.917-3.674,2.223-8.2a30.716,30.716,0,0,1,2.418-6.188c.031.019-.578,1.843-1.931,6.343C222.332,216.882,220.81,220.41,220.918,220.426Z" style="fill:#63c292"/><path d="M231.663,202.391c.014.011-1.905,3.306-4.285,7.338-2.23,4.017-4.319,7.529-3.849,7.352-.478.187,1.157-3.558,3.405-7.61A83.005,83.005,0,0,1,231.663,202.391Z" style="fill:#63c292"/><path d="M231.551,205.614a59.9,59.9,0,0,1-3.795,5.7c-2.482,2.9-3.935,5.538-4.1,5.443.138.136,1.231-2.87,3.69-5.75C229.638,208.013,231.524,205.6,231.551,205.614Z" style="fill:#63c292"/><path d="M233.188,206.533a53.089,53.089,0,0,1-4.357,4.933c-2.572,2.565-4.63,4.671-4.656,4.662a44.432,44.432,0,0,1,4.271-5.01C231.029,208.554,233.174,206.527,233.188,206.533Z" style="fill:#63c292"/><path d="M237.83,206.039c0,.011-2.818,2.192-6.422,4.683-3.674,2.414-6.6,4.362-6.511,4.516-.126-.132,2.571-2.536,6.236-4.94C234.742,207.8,237.838,206.047,237.83,206.039Z" style="fill:#63c292"/><path d="M238.235,208.207a54.014,54.014,0,0,1-5.991,3.346c-3.639,1.609-7.131,3.106-7.092,3.206a42.65,42.65,0,0,1,6.866-3.662C235.594,209.371,238.235,208.207,238.235,208.207Z" style="fill:#63c292"/><path d="M215.6,236a36.518,36.518,0,0,1-1.62-5.438c-.339-3.081-.354-5.559-.407-5.562.051-.013.351,2.485.687,5.514C214.858,233.52,215.637,236,215.6,236Z" style="fill:#63c292"/><path d="M214.942,235.677c.038-.011-.706-2.4-1.347-5.436a51.8,51.8,0,0,1-.665-5.564c-.018,0,.438,2.475.953,5.509C214.517,233.2,214.981,235.671,214.942,235.677Z" style="fill:#63c292"/><path d="M215.9,234.3a30.535,30.535,0,0,1-1.15-5.966c-.336-3.336-.837-6.013-.645-6.034-.192.022.621,2.643.959,5.991S215.877,234.3,215.9,234.3Z" style="fill:#63c292"/><path d="M214.944,238.6c-.054.014-.955-3.721-1.64-6.165a42.243,42.243,0,0,1-.769-4.55c-.007-.008.46,2.026,1.01,4.487C214.234,234.831,214.89,238.61,214.944,238.6Z" style="fill:#63c292"/><path d="M214.973,240.308a38.487,38.487,0,0,1-1.592-4.983c-.789-2.766-1.471-5.013-1.452-5.017-.019.006.924,2.158,1.718,4.943C214.345,238.056,214.965,240.308,214.973,240.308Z" style="fill:#63c292"/><path d="M215.356,238.6c.016-.008-.8-2.193-1.551-4.989-.78-2.746-1.471-5-1.42-5.011-.047.022.907,2.148,1.7,4.945C214.832,236.312,215.375,238.6,215.356,238.6Z" style="fill:#63c292"/><path d="M215.3,237.6c-.017,0-.714-2.211-1.435-4.987-.687-2.767-1.459-4.972-1.293-5.013-.166.048.875,2.145,1.573,4.943C214.858,235.312,215.278,237.606,215.3,237.6Z" style="fill:#63c292"/><path d="M213.389,237.615c-.933-3.07-1.882-5.512-1.784-5.545-.1.037,1.126,2.363,2.067,5.454a30.9,30.9,0,0,1,1.032,3.844" style="fill:#63c292"/><path d="M214.66,242.382a42.6,42.6,0,0,1-1.809-4.445,31.392,31.392,0,0,1-1.482-4.555c-.153.056.861,1.954,1.723,4.469C213.939,240.36,214.671,242.377,214.66,242.382Z" style="fill:#63c292"/><path d="M214.471,243.818c-.088.044-.843-.332-1.736-2.536a27.934,27.934,0,0,1-1.527-6.159,34.511,34.511,0,0,0,1.753,6.064C213.863,243.409,214.378,243.851,214.471,243.818Z" style="fill:#63c292"/><path d="M214.287,246.275c.111-.071-1.265-2.479-3.134-6.475a5.449,5.449,0,0,1-.5-2.4,19.668,19.668,0,0,1,.97,2.186C213.467,243.54,214.41,246.238,214.287,246.275Z" style="fill:#63c292"/><path d="M214.7,241.368c.022-.018-.587-1.951-1.555-4.788a35.1,35.1,0,0,1-1.387-5.212c-.08.033.749,2.282,1.656,5.134A28.332,28.332,0,0,1,214.7,241.368Z" style="fill:#63c292"/><path d="M219.282,237.86c.053.028-1.1,1.6-2.361,3.555a16.431,16.431,0,0,1-2.58,3.457c.163.036.724-1.673,2.032-3.7A18.888,18.888,0,0,1,219.282,237.86Z" style="fill:#63c292"/><path d="M220.359,233.931c.019.009-1.241,2.273-2.92,4.978-1.761,2.677-3.343,4.8-2.9,4.909-.451-.067.608-2.474,2.378-5.148A43.878,43.878,0,0,1,220.359,233.931Z" style="fill:#63c292"/><path d="M222.662,228.712c.069.041-1.922,2.983-4.061,6.743-2.227,3.729-4.038,6.76-3.935,6.8a35.272,35.272,0,0,1,3.43-7.038A53.2,53.2,0,0,1,222.662,228.712Z" style="fill:#63c292"/><path d="M220.969,229.913c.066.03-1.465,2.412-3.108,5.41-1.717,2.962-3,5.461-3.1,5.417a44.3,44.3,0,0,1,2.557-5.636A35.485,35.485,0,0,1,220.969,229.913Z" style="fill:#63c292"/><path d="M222.807,224.321c.027.009-1.818,3.155-4.139,6.971-2.267,3.809-3.479,7.231-3.612,7.175a37.178,37.178,0,0,1,3.114-7.415C220.513,227.2,222.832,224.335,222.807,224.321Z" style="fill:#63c292"/><path d="M223.332,222.578c.017.008-1.971,2.952-4.25,6.653a21.491,21.491,0,0,0-3.474,6.956,15.7,15.7,0,0,1,2.993-7.21A49.811,49.811,0,0,1,223.332,222.578Z" style="fill:#63c292"/><path d="M222.615,222.342a56.48,56.48,0,0,0-3.009,5.019c-1.625,2.809-3.18,4.953-3.174,4.961s1.076-2.4,2.7-5.205A21.1,21.1,0,0,1,222.615,222.342Z" style="fill:#63c292"/><path d="M227.183,217.941c.032.03-2.776,2.484-5.785,5.851a29.122,29.122,0,0,0-4.454,6.788,20.119,20.119,0,0,1,4.05-7.117A40.28,40.28,0,0,1,227.183,217.941Z" style="fill:#63c292"/><path d="M227.381,218.392c.026.028-2.271,1.837-4.991,4.109a29.128,29.128,0,0,0-4.3,4.772,17.361,17.361,0,0,1,3.974-5.161A44.038,44.038,0,0,1,227.381,218.392Z" style="fill:#63c292"/><path d="M230.113,216.756c.021.031-2.457,1.7-5.491,3.755-3.192,1.879-5.443,3.731-5.321,3.9-.174-.119,1.859-2.456,5.045-4.324A53.592,53.592,0,0,1,230.113,216.756Z" style="fill:#63c292"/><path d="M227.115,217.96c.013.021-1.632,1.264-3.684,2.7a24.913,24.913,0,0,0-3.667,2.67,11.551,11.551,0,0,1,3.384-3.093A29.139,29.139,0,0,1,227.115,217.96Z" style="fill:#63c292"/><path d="M230.822,214.887c-.006.008-2.37,1.562-5.179,3.65-2.951,1.964-5.3,3.406-5.187,3.61-.166-.161,2.015-2.106,4.909-4.03A30.671,30.671,0,0,1,230.822,214.887Z" style="fill:#63c292"/><path d="M231.113,213.861c.012.022-2.364,1.461-5.244,3.234a33.558,33.558,0,0,0-4.9,3.714,18.1,18.1,0,0,1,4.642-4.149A41.723,41.723,0,0,1,231.113,213.861Z" style="fill:#63c292"/><path d="M234.6,211.287c.016.038-3.055,1.407-6.584,3.5a66.777,66.777,0,0,0-6.065,4.345,30.844,30.844,0,0,1,5.815-4.787A35.84,35.84,0,0,1,234.6,211.287Z" style="fill:#63c292"/><path d="M234.326,211.871c.011.029-2.879,1.34-6.3,3.168a28.725,28.725,0,0,0-5.886,3.81,18.306,18.306,0,0,1,5.645-4.26A39.9,39.9,0,0,1,234.326,211.871Z" style="fill:#63c292"/><path d="M219.728,242.016c.028.009-1.509,2.318-3.155,5.193a23.508,23.508,0,0,0-2.232,5.409,11.717,11.717,0,0,1,1.583-5.6A26.846,26.846,0,0,1,219.728,242.016Z" style="fill:#63c292"/><path d="M220.346,238.288c.043.012-1.666,2.879-3.544,6.45-1.83,3.542-2.361,6.79-2.568,6.726.218.039.11-3.232,2-6.93A44.072,44.072,0,0,1,220.346,238.288Z" style="fill:#63c292"/><path d="M221.976,234.275a25.3,25.3,0,0,0-4.374,6.547,38.981,38.981,0,0,0-3.387,7.017,22.012,22.012,0,0,1,2.848-7.226A18.27,18.27,0,0,1,221.976,234.275Z" style="fill:#63c292"/><path d="M214.672,256.779a17.458,17.458,0,0,1,1.589-6.5,23.2,23.2,0,0,1,3.379-5.995,50.554,50.554,0,0,0-2.809,6.166A33.633,33.633,0,0,0,214.672,256.779Z" style="fill:#63c292"/><path d="M214.9,258.307a10.565,10.565,0,0,1,1.092-5.269,27.355,27.355,0,0,1,3.087-4.819c.014,0-1.1,2.263-2.437,4.975A21.4,21.4,0,0,0,214.9,258.307Z" style="fill:#63c292"/><path d="M215.122,260.118a21.343,21.343,0,0,1,.946-4.943,12.665,12.665,0,0,1,2.995-4.416,24.634,24.634,0,0,0-2.372,4.551C215.835,257.949,215.145,260.12,215.122,260.118Z" style="fill:#63c292"/><path d="M215.667,262.81a18.046,18.046,0,0,1,.673-5.618,10.582,10.582,0,0,1,2.67-5.329,15.771,15.771,0,0,0-1.937,5.414C216.228,260.332,215.651,262.793,215.667,262.81Z" style="fill:#63c292"/><path d="M216.586,266.6a11.8,11.8,0,0,1-.077-6.011c1.1-3.236,2.152-5.832,2.383-5.79-.241-.031-.506,2.657-1.594,5.884A24.407,24.407,0,0,0,216.586,266.6Z" style="fill:#63c292"/><path d="M214.226,247.385c.088-.068-1.385-.612-3.086-4.426a11.254,11.254,0,0,1-.81-3.487,35.173,35.173,0,0,1,1.284,3.3A21.888,21.888,0,0,0,214.226,247.385Z" style="fill:#63c292"/><path d="M214.234,250.235a17.862,17.862,0,0,1-3.5-6.245c-.021-.063-.662-3.4-.685-3.388.454,1.212,1.169,3.22,1.169,3.22A37.093,37.093,0,0,0,214.234,250.235Z" style="fill:#63c292"/><path d="M214.3,252.764a33.024,33.024,0,0,1-3.37-6.362,19.007,19.007,0,0,1-.873-3.337A30.19,30.19,0,0,0,211.4,246.2C213.077,250.324,214.325,252.754,214.3,252.764Z" style="fill:#63c292"/><path d="M214.47,254.975c.03-.02-1.459-2.514-3.034-6.09a36.284,36.284,0,0,1-1.488-4.455c-.039.021.321.756,1.887,4.32C213.391,252.29,214.506,254.967,214.47,254.975Z" style="fill:#63c292"/><path d="M215.131,260.42c.217-.118-2.055-3.253-3.924-7.8-1.6-4.6-1.777-5.461-1.7-5.494-.078.022.494.8,2.1,5.391C213.431,256.969,215.371,260.362,215.131,260.42Z" style="fill:#63c292"/><path d="M210.359,251.029a75.83,75.83,0,0,0,4.792,10.036" style="fill:#63c292"/><path d="M215.963,264.662a31.206,31.206,0,0,1-4.113-6.777c-1.842-4.094-2.638-6.566-2.36-6.645-.263.127.828,2.208,2.686,6.345A57.409,57.409,0,0,0,215.963,264.662Z" style="fill:#63c292"/><path d="M214.66,257.168a30.185,30.185,0,0,1-3.456-6.357,30.7,30.7,0,0,1-1.574-5.089c.315.553.54.772,2.053,4.9C213.419,254.634,214.6,257.2,214.66,257.168Z" style="fill:#63c292"/><path d="M217.32,268.911c-.011-.007-1.06-1.771-2.361-3.981a22.062,22.062,0,0,1-1.916-3.968c-.244-.364,1.038,1.665,2.246,3.8A30.91,30.91,0,0,1,217.32,268.911Z" style="fill:#63c292"/><path d="M218.12,271c-.013,0-1.035-1.4-2.157-3.2-1.141-1.771-1.93-3.328-1.922-3.32a36.059,36.059,0,0,1,2.279,3.139A30.771,30.771,0,0,1,218.12,271Z" style="fill:#63c292"/><path d="M218.726,272.694a30.186,30.186,0,0,0-2.25-2.811,16.1,16.1,0,0,1-1.911-3.014c-.015.023,1.054,1.219,2.29,2.8A9.813,9.813,0,0,1,218.726,272.694Z" style="fill:#63c292"/><path d="M232.419,206.6a53.089,53.089,0,0,1-4.357,4.933" style="fill:#63c292"/><path d="M237.377,204.816c0,.007-1.811,1.409-4.125,3.008a38.5,38.5,0,0,0-4.183,2.9,19.783,19.783,0,0,1,4.006-3.173C235.393,205.95,237.382,204.822,237.377,204.816Z" style="fill:#63c292"/><path d="M234.137,204.154a23.531,23.531,0,0,1-2.443,3.4c-1.512,1.848-2.843,3.34-2.864,3.336" style="fill:#63c292"/><path d="M238.7,205.37s-.784.277-1.787.592c-1.022.305-1.838.551-1.812.571a10.467,10.467,0,0,1,1.736-.625C237.841,205.593,238.7,205.371,238.7,205.37Z" style="fill:#63c292"/><path d="M236.12,203.87a12.635,12.635,0,0,1-1.17,1.8c-.725.978-1.362,1.768-1.372,1.765" style="fill:#63c292"/><path d="M237.2,204.23a8.18,8.18,0,0,1-.967,1.162c-.6.632-1.124,1.142-1.133,1.141" style="fill:#63c292"/><path d="M238.033,204.68a4,4,0,0,1-.521.561c-.323.3-.607.551-.612.55" style="fill:#63c292"/><path d="M239.615,205s-.584.19-1.33.405-1.368.377-1.349.391a8.166,8.166,0,0,1,1.292-.428C238.975,205.148,239.617,205,239.615,205Z" style="fill:#63c292"/><path d="M234.326,206.962a6.491,6.491,0,0,1,1.078-.228c.617-.092,1.135-.147,1.138-.142" style="fill:#63c292"/><path d="M249.465,293.686c14.892-3.161,26.332-21.887,26.332-44.523s-11.44-41.362-26.332-44.523" style="fill:none;stroke:#965f17;stroke-linecap:round;stroke-miterlimit:10;stroke-width:2px"/><path d="M261.1,287.528c8.818-7.913,14.7-22.134,14.7-38.365,0-21.087-9.928-38.781-23.326-43.659" style="fill:none;stroke:#fff;stroke-linecap:round;stroke-miterlimit:10;stroke-width:0.5px;opacity:0.2"/></svg>